<svg xmlns="http://www.w3.org/2000/svg" width="136" height="38" viewBox="0 0 136 38"><path fill="#fff" fill-rule="evenodd" d="M76.246 32.111c.482 0 .908.174 1.266.516.357.341.539.753.539 1.222 0 .411-.171.854-.507 1.318l-1.791 2.431-.797-.593 1.047-1.427c-.406-.018-.764-.185-1.063-.498-.315-.326-.474-.726-.474-1.186 0-.49.176-.913.523-1.258.348-.349.771-.525 1.257-.525zm-20.38.16l3.537 2.712v-2.7h1.056v5.283l-3.537-2.725v2.616h-1.056v-5.185zm7.891-.076c.462 0 .914.126 1.344.376l.081.046v1.306l-.266-.223c-.392-.326-.798-.492-1.209-.492-.456 0-.829.16-1.14.487-.319.328-.473.718-.473 1.193 0 .47.154.853.47 1.174.314.321.688.476 1.146.476.233 0 .431-.037.588-.11.097-.04.193-.093.291-.158.104-.068.213-.15.326-.246l.267-.226v1.328l-.082.047c-.443.251-.913.378-1.399.378-.733 0-1.368-.26-1.89-.772-.517-.52-.779-1.152-.779-1.88 0-.655.22-1.245.65-1.757.534-.629 1.233-.947 2.075-.947zm-11.953-.006c.617 0 1.105.3 1.45.895l.08.138-.872.518-.082-.142c-.121-.21-.207-.288-.258-.318-.085-.053-.192-.078-.324-.078-.165 0-.295.043-.4.133-.1.084-.145.18-.145.305 0 .163.144.305.428.422l.483.197c.417.169.729.38.93.632.204.259.308.577.308.945 0 .49-.166.902-.496 1.223-.33.322-.742.486-1.228.486-.46 0-.848-.141-1.151-.418-.298-.275-.485-.663-.558-1.15l-.022-.15 1.065-.234.02.179c.038.316.099.45.144.509.122.17.294.25.53.25.186 0 .334-.057.454-.18.12-.121.179-.274.179-.466 0-.077-.01-.147-.031-.207-.02-.06-.05-.114-.093-.165-.043-.051-.104-.104-.18-.153-.08-.052-.177-.103-.288-.151l-.467-.194c-.728-.307-1.096-.771-1.096-1.38 0-.411.16-.76.474-1.035.306-.273.692-.411 1.146-.411zm17.21.1v1.013H67.07v.84h1.887v1.013H67.07v1.295h1.944v1.013h-3V32.29h3zm-13.946-.006v5.174h-1.057v-5.174h1.057zm29.136-.175c.465 0 .852.14 1.15.42.302.28.454.645.454 1.084 0 .416-.142.76-.422 1.025.333.27.5.66.5 1.163 0 .48-.166.879-.492 1.187-.325.304-.742.458-1.242.458-.639 0-1.12-.241-1.436-.716-.13-.203-.215-.48-.247-.822l-.018-.178h1.026l.02.137c.03.194.106.342.219.44.117.1.27.149.466.149.192 0 .346-.062.471-.188.124-.13.185-.292.185-.498 0-.267-.088-.45-.27-.558-.073-.044-.23-.096-.547-.096h-.162v-.95h.162c.376 0 .5-.054.535-.077.145-.092.215-.238.215-.448 0-.162-.052-.29-.159-.388-.105-.104-.242-.154-.417-.154-.161 0-.284.036-.364.107-.078.073-.144.22-.189.422l-.027.128h-1.051l.03-.19c.083-.492.258-.86.517-1.097.265-.238.632-.36 1.093-.36zm-4.007 0c.466 0 .852.14 1.15.42.302.28.454.645.454 1.084 0 .416-.14.76-.421 1.025.332.27.5.66.5 1.163 0 .48-.166.879-.492 1.187-.325.304-.742.458-1.242.458-.64 0-1.121-.241-1.436-.716-.131-.203-.215-.48-.248-.822l-.018-.178h1.026l.02.137c.03.194.106.342.22.44.117.1.269.149.465.149.193 0 .348-.062.472-.188.124-.13.186-.292.186-.498 0-.267-.09-.45-.271-.558-.073-.044-.23-.096-.548-.096h-.162v-.95h.162c.377 0 .5-.054.537-.077.143-.092.213-.238.213-.448 0-.162-.051-.29-.158-.388-.106-.104-.243-.154-.418-.154-.161 0-.284.036-.364.107-.077.073-.143.22-.188.422l-.028.128h-1.051l.032-.19c.08-.492.256-.86.516-1.097.265-.238.632-.36 1.092-.36zm-6.463.084v5.174h-1.056v-4.16h-.959l.593-1.014h1.422zm61.943 1.973v1.375H88.698v-1.375h46.979zm-88.698 0v1.375H0v-1.375h46.979zm29.277-1.067c-.209 0-.382.072-.529.219-.151.15-.223.321-.223.524 0 .218.071.397.219.544.3.299.773.299 1.067.004.151-.15.223-.326.223-.537 0-.21-.072-.385-.223-.535-.147-.147-.322-.219-.534-.219zM30.541 19.28c-.065.392-.135.8-.217 1.208-.33 1.593-.72 4.839-2.106 6.019-1.128.94-3.282 1.078-4.536 1.078-1.374 0-2.755.037-4.13.037h-.483c-4.65-.004-6.428-.152-5.248-5.575l.394-1.812c.864-3.982 2.541-4.62 6.176-4.62 1.476 0 2.975-.03 4.45-.03 3.142 0 6.397-.376 5.7 3.695zm-15.986-3.665l-.61 2.93H8.782l-1.884 9.04H3.283l1.887-9.04H.108l.61-2.93h13.837zm22.196 0c-.32 1.526-.671 3.048-.985 4.552-.156.765-.32 1.538-.443 2.305-.227 1.336-.112 2.091 1.336 2.19.406.034.83.034 1.256.034.813 0 1.618-.034 2.43-.034 1.973 0 2.352-.515 2.733-2.34l.152-.739 1.245-5.968h3.634l-1.645 7.888c-.657 3.141-2.5 4.081-5.42 4.081h-6.636c-4.108 0-3.004-3.967-2.39-6.925.345-1.673.73-3.35 1.08-5.044h3.653zm24.614 0c3.12 0 3.287 1.49 2.699 4.31-.355 1.713-.881 2.36-2.638 2.976 1.79.602 1.63 1.611 1.249 3.435l-.258 1.248h-3.634l.166-.802c.293-1.385.578-2.19-1.014-2.295-.67-.028-1.348-.047-2.014-.047-1.236 0-2.482.033-3.706.033l-.644 3.111h-3.653l2.497-11.969h10.95zm9.67 0l-2.496 11.97h-3.63l2.49-11.97h3.635zm13.265 0c1.153 0 2.407.26 2.848 1.322.252.581.005 1.758-.134 2.45l-.081.366h-3.566c.142-1.09-.292-1.209-1.272-1.209h-4.141c-.78 0-1.572.034-1.78 1.02-.158.776.57.86 1.157.893 2.2.12 4.462.016 6.66.138 2.025.12 3.082.767 2.622 2.973l-.053.256c-.716 3.422-3.19 3.746-5.946 3.76h-6.19c-2.563 0-3.45-.99-2.817-3.518l.1-.413h3.567c-.09.767.163 1.01.924 1.01h5.08c.56 0 1.492-.07 1.647-.82.162-.77-.418-.858-1.02-.894-2.23-.13-4.521-.048-6.771-.168-2.281-.138-2.952-.907-2.585-3.249l.056-.342c.544-3.435 2.632-3.575 5.498-3.575H84.3zm18.541 0l-.61 2.93h-5.16l-1.883 9.04H91.57l1.886-9.04h-5.06l.61-2.93h13.834zm14.659 0l-.608 2.93h-9.34l-.395 1.893h8.84l-.497 2.414h-8.846l-.38 1.81h9.558l-.605 2.922h-13.191l2.493-11.969h12.97zm12.947 0c3.124 0 3.29 1.49 2.702 4.31-.357 1.713-.881 2.36-2.64 2.976 1.796.602 1.636 1.611 1.252 3.435l-.26 1.248h-3.636l.17-.802c.288-1.385.577-2.19-1.019-2.295-.67-.028-1.345-.047-2.009-.047-1.235 0-2.483.033-3.704.033l-.647 3.111h-3.65l2.493-11.969h10.948zM23.727 18.51c-1.04 0-2.082.036-3.134.036-1.865 0-2.45.29-2.86 2.25l-.248 1.185c-.6 2.89.148 2.716 2.778 2.716 1.056 0 2.095-.033 3.143-.033 1.854 0 2.454-.274 2.866-2.24l.238-1.144c.604-2.904-.154-2.77-2.783-2.77zm104.364.035h-5.552l-.599 2.871h5.448c1.07 0 1.941-.1 2.21-1.405.265-1.282-.372-1.466-1.507-1.466zm-69.086 0h-5.55l-.6 2.871h5.448c1.069 0 1.943-.1 2.21-1.405.269-1.282-.373-1.466-1.508-1.466zM71.972.034c3.124 0 3.29 1.486 2.7 4.307-.351 1.71-.877 2.362-2.64 2.978 1.797.597 1.635 1.605 1.255 3.435L73.027 12h-3.633l.169-.804c.287-1.383.576-2.19-1.015-2.29-.674-.032-1.35-.053-2.012-.053-1.24 0-2.484.034-3.71.034L62.18 12h-3.65L61.026.035h10.947zm-56.698 0L19.28 12h-3.99l-.723-2.152H7.201L5.684 12H1.645L10.525.034h4.75zm13.36 0l2.537 7.674L36.91.034h5.829L40.242 12h-3.613l1.796-8.61-6.77 8.61h-2.731L25.87 3.437 24.086 12h-3.621L22.962.034h5.673zm29.663 0L57.69 2.96h-9.336l-.398 1.896h8.845l-.5 2.406h-8.846l-.376 1.817h9.553L56.023 12H42.834L45.327.034h12.97zM98.66 4.19l-.037.175h-3.595c.283-1.769-1.316-1.424-2.658-1.424-1.068 0-2.144.02-3.232.02-.694 0-1.305.081-1.806.768-.24.343-.56 1.814-.657 2.256-.592 2.84-.41 3.127 2.457 3.127 1.065 0 2.147-.033 3.215-.033 1.304 0 1.875-.294 2.185-1.695H98.2C97.521 10.72 96.777 12 93.18 12h-6.282c-4.122 0-4.89-1.212-4.045-5.267.364-1.74.58-4.252 2.221-5.586 1.29-1.06 3.282-1.113 4.71-1.113C91.174.034 92.574 0 93.967 0l1.147.001c2.884.02 4.35.328 3.545 4.188zM111.726.034L115.736 12h-3.989l-.722-2.152h-7.367L102.14 12h-4.043L106.973.034h4.753zm13.495 0l5.069 8.648 1.805-8.648h3.647L133.249 12h-5.653L122.5 3.47 120.72 12h-3.614l2.49-11.966h5.624zm-43.503 0L79.225 12h-3.637l2.5-11.966h3.63zM12.316 2.905L9.1 7.333h4.617l-1.4-4.428zm96.453 0l-3.212 4.428h4.613l-1.4-4.428zm-39.151.055h-5.553l-.597 2.87h5.447c1.073 0 1.939-.105 2.21-1.401.268-1.283-.374-1.47-1.507-1.47z"></path>
</svg>
